<?xml version="1.0" encoding="UTF-8" standalone="no"?>
        <svg
           version="1.1"
           id="Layer_1"
           x="0px"
           y="0px"
           width="100%"
           viewBox="0 0 624 640"
           enable-background="new 0 0 624 640"
           xml:space="preserve"
           xmlns:inkscape="http://www.inkscape.org/namespaces/inkscape"
           xmlns:sodipodi="http://sodipodi.sourceforge.net/DTD/sodipodi-0.dtd"
           xmlns="http://www.w3.org/2000/svg"
           xmlns:svg="http://www.w3.org/2000/svg">
           <path
           fill="#ffffff"
           opacity="1"
           stroke="none"
           d="M 129.26599,588.11816 C 109.2777,583.52582 92.495834,565.16773 92.558029,539.82068 92.917877,393.17606 92.72657,246.53011 92.728088,99.884613 92.72834,75.615524 112.30266,55.135269 136.55232,55.070518 c 80.65444,-0.215377 161.30983,-0.06387 241.96477,-0.131286 5.35681,-0.0045 9.04617,2.629806 12.56421,6.166187 17.27438,17.36446 34.56003,34.718334 51.93875,51.978271 24.94171,24.77131 49.98001,49.44538 74.94852,74.18979 6.3443,6.2874 9.37494,13.98047 9.37445,22.90914 -0.006,108.9841 0.0122,217.96817 -0.011,326.95227 -0.005,22.47613 -16.96368,42.90252 -38.97147,46.90051 -3.52829,0.64093 -7.57342,1.41876 -9.95858,-2.49182 -2.21433,-3.63049 -0.1221,-6.72424 1.98593,-9.59155 8.9891,-12.2262 12.84155,-25.65601 12.78549,-41.06269 -0.3717,-102.15048 -0.21213,-204.30291 -0.22763,-306.45472 -0.001,-7.50812 -0.009,-7.50092 -7.42069,-7.50315 -26.49603,-0.008 -52.99267,0.0865 -79.48788,-0.0669 -20.75281,-0.12013 -36.92544,-10.9745 -43.72443,-28.9906 -1.53631,-4.071 -2.47317,-8.2765 -2.52676,-12.66513 -0.29697,-24.32033 -0.63467,-48.64016 -0.9266,-72.96055 -0.11426,-9.517322 -3.44343,-12.886654 -13.00092,-12.888897 -67.82349,-0.0159 -135.64694,-0.02389 -203.47041,-0.02216 -10.18068,2.67e-4 -14.22782,4.005997 -14.2293,14.231987 -0.0209,144.81237 -0.0283,289.62473 -0.0135,434.43711 10e-4,11.81842 4.06659,15.71374 16.05276,15.71362 56.32521,-5.5e-4 112.65084,0.0949 168.97512,-0.13269 6.82608,-0.0275 11.74777,1.67664 15.6325,7.48767 3.21998,4.81653 7.3198,9.05518 11.1301,13.4632 2.82697,3.27051 3.30063,7.03058 1.66504,10.70745 -1.5354,3.45167 -5.05246,3.96229 -8.54395,3.96149 -65.32376,-0.0146 -130.64755,-0.009 -195.97126,-0.068 -2.46872,-0.002 -4.93688,-0.61396 -7.8196,-1.02088 M 396.26553,123.92825 c 0.33139,15.62508 0.68921,31.24964 0.98288,46.87543 0.14331,7.62747 2.24158,9.85695 9.77643,9.87436 15.13867,0.035 30.27762,0.0371 45.41611,-0.027 1.72003,-0.007 3.62387,0.55371 4.48996,-0.16435 -20.20423,-20.2348 -40.39469,-40.45586 -60.54151,-60.63319 -0.44534,0.55401 0.0158,1.93489 -0.12387,4.07479 z"
           id="path1" />
        <path
           fill="#ffffff"
           opacity="1"
           stroke="none"
           d="M 373.69971,538.27783 C 363.63107,526.052 353.76526,514.1181 343.95209,502.14114 c -1.59888,-1.95144 -3.4831,-2.78549 -6.01313,-2.94232 -9.31384,-0.5773 -12.27746,-3.84353 -12.28701,-13.17013 -0.004,-3.99918 -0.0722,-8.0001 0.022,-11.99707 0.13886,-5.89255 3.43698,-9.22519 9.39181,-9.28553 10.33017,-0.10461 20.67798,0.31504 30.98938,-0.14086 15.10318,-0.66785 26.50013,-7.9368 34.28635,-20.87601 0.16785,-0.27887 0.29703,-0.60919 0.33679,-0.9289 0.0386,-0.3107 -0.0612,-0.63867 -0.11264,-1.06066 -2.00625,-1.01206 -4.19436,-0.51114 -6.29455,-0.51774 -20.82834,-0.0654 -41.65692,-0.059 -62.48532,-0.11606 -1.81903,-0.005 -3.71585,-0.0436 -5.44053,-0.53958 -4.5653,-1.31289 -6.55661,-5.73303 -4.26495,-9.79489 2.77973,-4.92697 5.8837,-9.67337 8.91358,-14.45596 2.15872,-3.40741 5.56494,-3.76157 9.21868,-3.74789 19.16242,0.0718 38.32517,0.0687 57.4878,0.0598 1.78924,-8.2e-4 3.65384,0.34403 5.59384,-0.69382 0.14233,-5.38607 -1.71298,-10.14306 -4.8898,-14.26712 -6.57495,-8.53546 -15.33084,-13.17007 -26.18945,-13.26849 -13.66276,-0.12378 -27.32743,-0.0297 -40.99128,-0.0467 -1.98733,-0.002 -3.94479,0.03 -5.86978,-0.83524 -4.22278,-1.89798 -5.77798,-5.32733 -3.39172,-9.27823 3.69855,-6.12366 7.70138,-12.07409 11.80069,-17.94046 1.93704,-2.772 5.04214,-3.63373 8.37811,-3.63281 35.99259,0.01 71.98538,-0.0627 107.97757,0.0586 9.29422,0.0314 15.3645,7.00989 15.22458,16.76206 -0.12287,8.56076 -6.54486,14.79251 -15.3952,14.85013 -7.48108,0.0487 -14.96271,0.01 -22.86481,0.01 0.21454,3.31677 2.26956,5.43786 3.2872,7.93566 2.01004,4.93351 4.22174,9.82959 5.01529,15.11286 0.66525,4.42917 2.97577,5.82626 7.1434,5.29358 1.8031,-0.23044 3.66095,-0.0414 5.49384,-0.0285 8.80236,0.0619 14.00677,5.1043 14.29156,13.84051 0.27988,8.58527 -4.87222,15.00284 -13.61712,14.33514 -9.76377,-0.74545 -13.73768,2.74323 -16.87476,11.973 -7.18979,21.15316 -23.00745,34.06768 -44.20178,40.56469 -1.25556,0.38492 -2.47184,0.89798 -3.96234,1.44544 0.54837,2.68878 2.23498,4.52551 3.7781,6.40753 20.80057,25.36917 41.6229,50.72061 62.42246,76.09061 1.98498,2.42114 4.60791,4.80487 2.81213,8.37854 -1.79239,3.56695 -5.24829,3.58557 -8.67828,3.54638 -5.83145,-0.0666 -11.71054,-0.49804 -17.48465,0.0772 -7.57974,0.75495 -12.6128,-2.62543 -17.11029,-8.13696 -9.79172,-11.99964 -19.80573,-23.81775 -29.72739,-35.7113 -1.9202,-2.30194 -3.83377,-4.60944 -5.97076,-7.19184 z"
           id="path2" />
        <path
           fill="#ffffff"
           opacity="1"
           stroke="none"
           d="m 219.99992,309.10052 c -9.16253,-0.0147 -17.83073,0.16648 -26.48634,-0.0848 -14.20021,-0.41227 -21.95375,-12.39215 -16.12598,-24.88996 3.03968,-6.51867 8.4984,-9.48791 15.67279,-9.48575 51.97594,0.0158 103.95188,0.008 155.92783,0.008 9.49561,10e-5 18.99152,-0.0439 28.48672,0.0195 9.6774,0.0646 17.16184,6.89404 17.77988,16.09796 0.58307,8.68222 -5.69226,16.08053 -14.86966,17.76858 -3.31747,0.6102 -6.63101,0.5842 -9.95498,0.58466 -49.97675,0.007 -99.9535,-0.007 -150.43026,-0.0185 z"
           id="path3" />
        <path
           fill="#ffffff"
           opacity="1"
           stroke="none"
           d="m 209.00046,191.91635 c 37.13977,-0.008 73.77972,-0.047 110.41958,-0.004 11.56229,0.0135 19.47568,8.00173 18.72815,18.64817 -0.61044,8.69406 -7.7045,15.70015 -16.40399,15.71452 -43.46817,0.0718 -86.9366,0.0676 -130.40481,0.003 -8.8211,-0.0132 -15.48604,-7.02647 -15.68239,-16.06316 -0.22612,-10.40727 6.15947,-17.68814 16.35891,-18.24137 5.4798,-0.29726 10.98884,-0.0552 16.98455,-0.0566 z"
           id="path4" />
        <path
           fill="#ffffff"
           opacity="1"
           stroke="none"
           d="m 192.23718,352.66321 c 28.44856,-8.6e-4 56.4262,-0.0113 84.40381,0.004 10.46408,0.006 17.45175,6.88358 17.34928,17.00165 -0.097,9.58194 -7.41779,16.64511 -17.45841,16.65991 -27.97751,0.0413 -55.95517,0.0494 -83.93263,-0.004 -6.47158,-0.0125 -11.689,-2.6929 -14.78314,-8.51157 -3.20195,-6.02136 -3.14254,-12.24194 0.45172,-18.08279 3.02398,-4.91415 7.7297,-7.13339 13.96937,-7.06735 z"
           id="path5" />
        </svg>
